<?xml version="1.0" standalone="no"?>
<!DOCTYPE svg PUBLIC "-//W3C//DTD SVG 20010904//EN"
 "http://www.w3.org/TR/2001/REC-SVG-20010904/DTD/svg10.dtd">
<svg version="1.0" xmlns="http://www.w3.org/2000/svg"
 width="2422.000000pt" height="850.000000pt" viewBox="0 0 2422.000000 850.000000"
 preserveAspectRatio="xMidYMid meet">

<g transform="translate(0.000000,850.000000) scale(0.100000,-0.100000)"
fill="#000000" stroke="none">
<path d="M10626 8483 c-6 -14 -5 -15 5 -6 7 7 10 15 7 18 -3 3 -9 -2 -12 -12z"/>
<path d="M11547 8493 c-8 -15 -29 -114 -25 -118 2 -3 11 25 20 60 14 60 16 76
5 58z"/>
<path d="M14146 8432 c20 -41 46 -115 59 -165 13 -51 24 -83 25 -72 1 53 -67
243 -104 290 -9 11 0 -13 20 -53z"/>
<path d="M15430 8493 c1 -5 26 -35 58 -68 57 -61 48 -47 -21 33 -20 23 -37 39
-37 35z"/>
<path d="M18852 8475 c0 -16 2 -22 5 -12 2 9 2 23 0 30 -3 6 -5 -1 -5 -18z"/>
<path d="M118 8483 c6 -2 18 -2 25 0 6 3 1 5 -13 5 -14 0 -19 -2 -12 -5z"/>
<path d="M308 8483 c7 -3 16 -2 19 1 4 3 -2 6 -13 5 -11 0 -14 -3 -6 -6z"/>
<path d="M10 8460 c-18 -12 -2 -12 25 0 13 6 15 9 5 9 -8 0 -22 -4 -30 -9z"/>
<path d="M405 8460 c27 -12 43 -12 25 0 -8 5 -22 9 -30 9 -10 0 -8 -3 5 -9z"/>
<path d="M2900 8402 c-6 -38 -10 -89 -7 -113 l4 -44 1 51 c1 28 7 76 13 108 6
32 8 60 6 63 -3 2 -10 -27 -17 -65z"/>
<path d="M22915 8460 c-3 -6 1 -7 9 -4 18 7 21 14 7 14 -6 0 -13 -4 -16 -10z"/>
<path d="M10587 8417 c-14 -24 -55 -76 -92 -117 l-67 -75 74 77 c40 42 84 95
96 117 31 55 21 53 -11 -2z"/>
<path d="M450 8446 c0 -2 7 -7 16 -10 8 -3 12 -2 9 4 -6 10 -25 14 -25 6z"/>
<path d="M18862 8420 c0 -14 2 -19 5 -12 2 6 2 18 0 25 -3 6 -5 1 -5 -13z"/>
<path d="M514 8411 c7 -11 46 -35 46 -28 0 3 -12 12 -26 22 -15 9 -23 12 -20
6z"/>
<path d="M22805 8390 c-3 -6 1 -7 9 -4 18 7 21 14 7 14 -6 0 -13 -4 -16 -10z"/>
<path d="M18872 8370 c0 -14 2 -19 5 -12 2 6 2 18 0 25 -3 6 -5 1 -5 -13z"/>
<path d="M11512 8330 c0 -19 2 -27 5 -17 2 9 2 25 0 35 -3 9 -5 1 -5 -18z"/>
<path d="M15588 8302 c24 -29 49 -55 55 -59 7 -4 -8 16 -31 45 -24 29 -49 55
-55 59 -7 4 8 -16 31 -45z"/>
<path d="M18882 8315 c0 -16 2 -22 5 -12 2 9 2 23 0 30 -3 6 -5 -1 -5 -18z"/>
<path d="M22709 8323 c-13 -16 -12 -17 4 -4 9 7 17 15 17 17 0 8 -8 3 -21 -13z"/>
<path d="M801 8210 c47 -47 105 -111 129 -142 51 -70 65 -77 18 -11 -33 47
-161 181 -208 218 -14 10 14 -19 61 -65z"/>
<path d="M11502 8270 c0 -14 2 -19 5 -12 2 6 2 18 0 25 -3 6 -5 1 -5 -13z"/>
<path d="M18891 8271 c-2 -21 33 -197 36 -181 1 8 -6 56 -16 105 -10 50 -19
84 -20 76z"/>
<path d="M22594 8238 l-19 -23 23 19 c12 11 22 21 22 23 0 8 -8 2 -26 -19z"/>
<path d="M11492 8220 c0 -14 2 -19 5 -12 2 6 2 18 0 25 -3 6 -5 1 -5 -13z"/>
<path d="M2884 8115 c0 -66 1 -92 3 -57 2 34 2 88 0 120 -2 31 -3 3 -3 -63z"/>
<path d="M15650 8226 c0 -2 8 -10 18 -17 15 -13 16 -12 3 4 -13 16 -21 21 -21
13z"/>
<path d="M22539 8193 l-24 -28 28 24 c15 14 27 26 27 28 0 8 -8 1 -31 -24z"/>
<path d="M11476 8159 c-8 -42 0 -50 9 -9 4 17 5 34 2 36 -2 3 -7 -10 -11 -27z"/>
<path d="M14232 8059 c-1 -63 -7 -141 -13 -173 -6 -32 -8 -60 -6 -63 12 -11
28 143 25 242 l-4 110 -2 -116z"/>
<path d="M15711 8140 c14 -31 19 -36 19 -24 0 6 -7 19 -16 30 -14 18 -14 18
-3 -6z"/>
<path d="M22425 8084 c-58 -67 -112 -144 -102 -144 3 0 21 24 40 53 20 28 55
73 80 100 24 26 41 47 37 47 -4 0 -29 -25 -55 -56z"/>
<path d="M10230 8110 c-9 -6 -10 -10 -3 -10 6 0 15 5 18 10 8 12 4 12 -15 0z"/>
<path d="M11447 8053 c-8 -32 -14 -59 -12 -61 2 -2 11 21 20 53 9 31 15 58 13
61 -3 2 -12 -22 -21 -53z"/>
<path d="M15732 8080 c0 -14 2 -19 5 -12 2 6 2 18 0 25 -3 6 -5 1 -5 -13z"/>
<path d="M10175 8080 c-3 -6 1 -7 9 -4 18 7 21 14 7 14 -6 0 -13 -4 -16 -10z"/>
<path d="M10125 8060 c-3 -6 1 -7 9 -4 18 7 21 14 7 14 -6 0 -13 -4 -16 -10z"/>
<path d="M18931 8054 c0 -11 3 -14 6 -6 3 7 2 16 -1 19 -3 4 -6 -2 -5 -13z"/>
<path d="M15742 8030 c0 -14 2 -19 5 -12 2 6 2 18 0 25 -3 6 -5 1 -5 -13z"/>
<path d="M18941 8014 c0 -11 3 -14 6 -6 3 7 2 16 -1 19 -3 4 -6 -2 -5 -13z"/>
<path d="M9985 8010 c-3 -6 1 -7 9 -4 18 7 21 14 7 14 -6 0 -13 -4 -16 -10z"/>
<path d="M1010 7950 c17 -30 39 -73 49 -95 10 -22 39 -71 64 -109 25 -39 63
-108 83 -155 20 -47 40 -95 45 -106 6 -14 7 -11 2 10 -9 46 -76 185 -120 251
-22 33 -56 94 -77 135 -20 40 -46 85 -57 99 -11 14 -6 0 11 -30z"/>
<path d="M15731 7974 c0 -12 -8 -41 -16 -64 -8 -24 -13 -45 -11 -47 7 -8 38
97 33 114 -4 15 -5 14 -6 -3z"/>
<path d="M18952 7980 c0 -8 6 -31 13 -50 7 -19 13 -28 13 -20 0 8 -6 31 -13
50 -7 19 -13 28 -13 20z"/>
<path d="M2894 7890 c0 -52 1 -74 3 -47 2 26 2 68 0 95 -2 26 -3 4 -3 -48z"/>
<path d="M9815 7970 c-13 -5 -14 -9 -5 -9 8 0 24 4 35 9 13 5 14 9 5 9 -8 0
-24 -4 -35 -9z"/>
<path d="M11406 7940 c-22 -56 -19 -65 5 -11 11 24 18 46 15 48 -2 2 -11 -14
-20 -37z"/>
<path d="M9698 7943 c6 -2 18 -2 25 0 6 3 1 5 -13 5 -14 0 -19 -2 -12 -5z"/>
<path d="M9585 7920 c-13 -5 -14 -9 -5 -9 8 0 24 4 35 9 13 5 14 9 5 9 -8 0
-24 -4 -35 -9z"/>
<path d="M22306 7913 c-6 -14 -5 -15 5 -6 7 7 10 15 7 18 -3 3 -9 -2 -12 -12z"/>
<path d="M9508 7903 c7 -3 16 -2 19 1 4 3 -2 6 -13 5 -11 0 -14 -3 -6 -6z"/>
<path d="M9468 7893 c7 -3 16 -2 19 1 4 3 -2 6 -13 5 -11 0 -14 -3 -6 -6z"/>
<path d="M18980 7885 c0 -5 5 -17 10 -25 5 -8 10 -10 10 -5 0 6 -5 17 -10 25
-5 8 -10 11 -10 5z"/>
<path d="M9378 7873 c7 -3 16 -2 19 1 4 3 -2 6 -13 5 -11 0 -14 -3 -6 -6z"/>
<path d="M9280 7850 c-8 -5 -10 -10 -5 -10 6 0 17 5 25 10 8 5 11 10 5 10 -5
0 -17 -5 -25 -10z"/>
<path d="M15686 7835 c-9 -26 -7 -32 5 -12 6 10 9 21 6 23 -2 3 -7 -2 -11 -11z"/>
<path d="M22256 7799 c-9 -29 -16 -60 -15 -68 0 -9 9 13 19 49 10 36 17 66 15
68 -2 2 -11 -20 -19 -49z"/>
<path d="M9220 7830 c-8 -5 -10 -10 -5 -10 6 0 17 5 25 10 8 5 11 10 5 10 -5
0 -17 -5 -25 -10z"/>
<path d="M11356 7823 c-6 -14 -5 -15 5 -6 7 7 10 15 7 18 -3 3 -9 -2 -12 -12z"/>
<path d="M19000 7836 c0 -12 72 -156 81 -162 4 -2 -10 33 -33 78 -43 87 -48
96 -48 84z"/>
<path d="M9145 7800 c-3 -6 1 -7 9 -4 18 7 21 14 7 14 -6 0 -13 -4 -16 -10z"/>
<path d="M14183 7748 c-12 -35 -20 -64 -18 -66 5 -5 46 109 43 119 -2 5 -13
-19 -25 -53z"/>
<path d="M11300 7728 c-24 -40 -61 -98 -84 -128 -22 -30 -33 -49 -24 -42 28
23 168 242 155 242 -2 0 -23 -33 -47 -72z"/>
<path d="M15651 7749 c-12 -29 -20 -54 -18 -56 2 -2 14 20 26 48 12 29 20 54
18 56 -2 2 -14 -20 -26 -48z"/>
<path d="M2904 7705 c0 -49 1 -71 3 -48 2 23 2 64 0 90 -2 26 -3 8 -3 -42z"/>
<path d="M9095 7780 c-3 -6 1 -7 9 -4 18 7 21 14 7 14 -6 0 -13 -4 -16 -10z"/>
<path d="M22226 7647 c-7 -59 6 -182 20 -196 3 -3 2 12 -3 34 -4 22 -7 82 -7
133 1 50 1 92 -1 92 -1 0 -6 -28 -9 -63z"/>
<path d="M8828 7601 c-46 -43 -98 -100 -116 -127 -19 -29 -22 -34 -6 -14 15
19 70 77 121 128 52 50 92 92 89 92 -3 0 -42 -35 -88 -79z"/>
<path d="M15610 7630 c-7 -28 -10 -53 -8 -55 3 -3 10 18 16 47 7 28 11 53 8
55 -2 2 -9 -19 -16 -47z"/>
<path d="M14137 7635 c-9 -19 -15 -35 -12 -35 7 0 37 61 33 66 -3 2 -12 -12
-21 -31z"/>
<path d="M19095 7650 c19 -34 86 -129 95 -135 6 -4 -11 24 -37 62 -46 68 -74
103 -58 73z"/>
<path d="M2913 7550 c0 -25 2 -35 4 -22 2 12 2 32 0 45 -2 12 -4 2 -4 -23z"/>
<path d="M14091 7554 c-12 -19 -16 -32 -11 -29 11 7 43 65 36 65 -2 0 -13 -16
-25 -36z"/>
<path d="M15586 7523 c-3 -21 -5 -56 -5 -78 1 -26 5 -14 10 34 9 79 6 108 -5
44z"/>
<path d="M11140 7505 c-13 -14 -22 -27 -19 -29 2 -2 14 10 27 25 29 36 24 38
-8 4z"/>
<path d="M14007 7445 c-32 -36 -56 -65 -53 -65 6 0 64 62 97 104 36 46 16 28
-44 -39z"/>
<path d="M19230 7460 c17 -22 37 -43 43 -47 6 -4 -6 14 -27 40 -21 26 -40 47
-43 47 -3 0 10 -18 27 -40z"/>
<path d="M2903 7425 c0 -33 2 -45 4 -27 2 18 2 45 0 60 -2 15 -4 0 -4 -33z"/>
<path d="M11055 7410 l-49 -55 54 52 c30 29 52 54 50 56 -3 1 -27 -22 -55 -53z"/>
<path d="M1261 7456 c-1 -4 6 -35 15 -68 8 -33 19 -95 23 -137 7 -62 9 -67 10
-28 0 26 -6 82 -15 123 -14 71 -32 129 -33 110z"/>
<path d="M22250 7430 c0 -26 56 -113 96 -150 37 -34 37 -34 -5 13 -23 26 -53
71 -67 100 -13 29 -24 45 -24 37z"/>
<path d="M8660 7400 c-6 -11 -8 -20 -6 -20 3 0 10 9 16 20 6 11 8 20 6 20 -3
0 -10 -9 -16 -20z"/>
<path d="M15573 7355 c0 -27 2 -38 4 -22 2 15 2 37 0 50 -2 12 -4 0 -4 -28z"/>
<path d="M19315 7361 c22 -25 46 -51 53 -59 7 -8 15 -12 17 -10 3 2 -21 29
-53 59 -47 45 -50 47 -17 10z"/>
<path d="M8614 7319 c-14 -28 -24 -53 -22 -55 2 -2 16 21 31 51 15 30 25 55
22 55 -3 0 -16 -23 -31 -51z"/>
<path d="M13909 7343 l-24 -28 28 24 c15 14 27 26 27 28 0 8 -8 1 -31 -24z"/>
<path d="M2891 7330 c-1 -19 -6 -55 -12 -79 -5 -24 -8 -46 -5 -48 8 -8 28 106
23 134 -3 25 -4 24 -6 -7z"/>
<path d="M10954 7318 l-29 -33 33 29 c30 28 37 36 29 36 -2 0 -16 -15 -33 -32z"/>
<path d="M13850 7299 c-22 -18 -22 -19 -3 -10 12 6 25 16 28 21 9 15 3 12 -25
-11z"/>
<path d="M15583 7255 c0 -27 2 -38 4 -22 2 15 2 37 0 50 -2 12 -4 0 -4 -28z"/>
<path d="M10889 7263 l-24 -28 28 24 c15 14 27 26 27 28 0 8 -8 1 -31 -24z"/>
<path d="M13790 7259 c-22 -18 -22 -19 -3 -10 12 6 25 16 28 21 9 15 3 12 -25
-11z"/>
<path d="M19390 7277 c0 -1 35 -36 78 -77 l77 -75 -75 78 c-69 71 -80 82 -80
74z"/>
<path d="M8563 7203 c-29 -67 -86 -243 -81 -248 2 -2 21 48 42 113 21 64 45
130 53 145 8 16 13 31 10 33 -2 3 -13 -17 -24 -43z"/>
<path d="M10788 7171 c-75 -81 -115 -150 -123 -212 l-5 -44 13 51 c18 70 57
132 129 209 33 36 58 65 55 65 -3 0 -34 -31 -69 -69z"/>
<path d="M13720 7220 c-9 -6 -10 -10 -3 -10 6 0 15 5 18 10 8 12 4 12 -15 0z"/>
<path d="M22420 7226 c0 -2 7 -7 16 -10 8 -3 12 -2 9 4 -6 10 -25 14 -25 6z"/>
<path d="M13670 7200 c-9 -6 -10 -10 -3 -10 6 0 15 5 18 10 8 12 4 12 -15 0z"/>
<path d="M22480 7200 c8 -5 22 -9 30 -9 10 0 8 3 -5 9 -27 12 -43 12 -25 0z"/>
<path d="M15591 7185 c0 -11 6 -42 13 -70 18 -65 19 -37 1 35 -7 30 -14 46
-14 35z"/>
<path d="M2861 7183 c-1 -6 -4 -20 -7 -30 -5 -17 -5 -17 6 0 6 10 9 23 6 30
-3 9 -5 9 -5 0z"/>
<path d="M13620 7180 c-9 -6 -10 -10 -3 -10 6 0 15 5 18 10 8 12 4 12 -15 0z"/>
<path d="M22603 7173 c9 -2 25 -2 35 0 9 3 1 5 -18 5 -19 0 -27 -2 -17 -5z"/>
<path d="M1313 7120 c0 -25 2 -35 4 -22 2 12 2 32 0 45 -2 12 -4 2 -4 -23z"/>
<path d="M22751 7156 c2 -2 18 -6 34 -10 22 -5 26 -4 15 4 -14 9 -59 15 -49 6z"/>
<path d="M13420 7130 c-20 -6 -21 -8 -5 -8 11 0 31 4 45 8 20 6 21 8 5 8 -11
0 -31 -4 -45 -8z"/>
<path d="M2813 7062 c-17 -37 -43 -87 -58 -112 -17 -30 -20 -36 -6 -20 25 30
106 188 100 194 -2 3 -18 -25 -36 -62z"/>
<path d="M13328 7113 c7 -3 16 -2 19 1 4 3 -2 6 -13 5 -11 0 -14 -3 -6 -6z"/>
<path d="M19550 7117 c0 -5 22 -32 48 -60 108 -116 131 -138 71 -69 -35 40
-76 88 -91 105 -15 18 -28 28 -28 24z"/>
<path d="M24108 7113 c6 -2 18 -2 25 0 6 3 1 5 -13 5 -14 0 -19 -2 -12 -5z"/>
<path d="M13253 7103 c9 -2 25 -2 35 0 9 3 1 5 -18 5 -19 0 -27 -2 -17 -5z"/>
<path d="M24058 7103 c7 -3 16 -2 19 1 4 3 -2 6 -13 5 -11 0 -14 -3 -6 -6z"/>
<path d="M13058 7083 c12 -2 32 -2 45 0 12 2 2 4 -23 4 -25 0 -35 -2 -22 -4z"/>
<path d="M23995 7080 c-3 -6 1 -7 9 -4 18 7 21 14 7 14 -6 0 -13 -4 -16 -10z"/>
<path d="M12983 7073 c9 -2 25 -2 35 0 9 3 1 5 -18 5 -19 0 -27 -2 -17 -5z"/>
<path d="M12830 7060 c-20 -6 -21 -8 -5 -8 11 0 34 4 50 8 27 7 27 8 5 8 -14
0 -36 -4 -50 -8z"/>
<path d="M22980 7066 c0 -3 9 -10 20 -16 11 -6 20 -8 20 -6 0 3 -9 10 -20 16
-11 6 -20 8 -20 6z"/>
<path d="M23960 7055 c-7 -9 -11 -17 -9 -20 3 -2 10 5 17 15 14 24 10 26 -8 5z"/>
<path d="M1302 7020 c-1 -25 -4 -63 -7 -85 l-5 -40 11 40 c5 22 8 60 6 85 l-3
45 -2 -45z"/>
<path d="M15620 7053 c0 -16 31 -95 36 -90 2 2 -5 25 -16 53 -10 27 -19 43
-20 37z"/>
<path d="M12728 7033 c7 -3 16 -2 19 1 4 3 -2 6 -13 5 -11 0 -14 -3 -6 -6z"/>
<path d="M23052 7015 c15 -16 29 -27 31 -24 3 2 -10 15 -27 28 l-31 24 27 -28z"/>
<path d="M12655 7010 c-3 -6 1 -7 9 -4 18 7 21 14 7 14 -6 0 -13 -4 -16 -10z"/>
<path d="M23942 6924 c-1 -55 -7 -126 -13 -158 -6 -32 -8 -60 -6 -63 11 -11
28 140 25 227 l-4 95 -2 -101z"/>
<path d="M12605 6990 c-3 -6 1 -7 9 -4 18 7 21 14 7 14 -6 0 -13 -4 -16 -10z"/>
<path d="M12560 6970 c-9 -6 -10 -10 -3 -10 6 0 15 5 18 10 8 12 4 12 -15 0z"/>
<path d="M15660 6946 c0 -15 70 -141 96 -171 l26 -30 -24 35 c-13 19 -40 66
-60 105 -21 38 -38 66 -38 61z"/>
<path d="M23139 6932 c5 -10 18 -25 27 -33 11 -9 9 -2 -6 19 -26 35 -36 42
-21 14z"/>
<path d="M8462 6903 c-6 -20 -10 -39 -8 -41 2 -2 9 13 16 33 7 20 10 38 8 41
-3 2 -10 -13 -16 -33z"/>
<path d="M10652 6885 c0 -31 25 -142 26 -115 1 8 -5 44 -13 80 -7 36 -13 52
-13 35z"/>
<path d="M12367 6818 l-94 -93 86 80 c47 43 93 85 101 92 8 7 11 13 7 13 -3 0
-49 -42 -100 -92z"/>
<path d="M19745 6890 c10 -11 20 -20 23 -20 3 0 -3 9 -13 20 -10 11 -20 20
-23 20 -3 0 3 -9 13 -20z"/>
<path d="M2705 6869 c-9 -17 -15 -33 -13 -35 3 -2 12 12 21 31 21 43 13 47 -8
4z"/>
<path d="M1249 6782 c-19 -59 -39 -116 -43 -127 -4 -12 -1 -10 8 5 18 29 78
209 74 221 -2 4 -19 -40 -39 -99z"/>
<path d="M23218 6816 c20 -35 39 -62 41 -61 4 5 -58 113 -69 120 -5 3 8 -24
28 -59z"/>
<path d="M19818 6794 c27 -38 61 -90 76 -116 16 -27 30 -48 33 -48 13 0 -126
212 -149 226 -5 4 12 -25 40 -62z"/>
<path d="M2676 6805 c-3 -9 -6 -22 -5 -28 0 -7 5 -1 10 12 5 13 8 26 5 28 -2
2 -6 -3 -10 -12z"/>
<path d="M8426 6805 c-9 -26 -7 -32 5 -12 6 10 9 21 6 23 -2 3 -7 -2 -11 -11z"/>
<path d="M8410 6768 c0 -3 -7 -22 -15 -42 -8 -20 -13 -36 -10 -36 8 0 36 73
30 78 -3 3 -5 3 -5 0z"/>
<path d="M2666 6614 c3 -93 13 -179 25 -228 34 -144 109 -263 214 -342 33 -25
47 -34 30 -19 -133 118 -176 179 -220 310 -23 67 -29 107 -37 249 -5 94 -11
172 -13 175 -3 2 -3 -63 1 -145z"/>
<path d="M15835 6680 c33 -33 62 -60 64 -60 3 0 -21 27 -54 60 -33 33 -62 60
-64 60 -3 0 21 -27 54 -60z"/>
<path d="M23262 6735 c0 -5 6 -26 13 -45 7 -19 14 -28 14 -20 0 8 -6 29 -14
45 -7 17 -13 26 -13 20z"/>
<path d="M12219 6683 l-34 -38 38 34 c34 33 42 41 34 41 -2 0 -19 -17 -38 -37z"/>
<path d="M10716 6682 c10 -18 30 -43 43 -55 14 -13 8 -1 -14 28 -47 63 -53 69
-29 27z"/>
<path d="M23911 6678 c0 -9 -4 -25 -7 -35 -5 -17 -5 -17 6 0 6 10 9 25 7 35
-4 15 -5 15 -6 0z"/>
<path d="M8335 6608 c-22 -39 -66 -103 -98 -142 l-58 -71 54 59 c51 54 155
212 146 220 -2 2 -22 -28 -44 -66z"/>
<path d="M12134 6614 l-39 -35 43 32 c38 30 48 39 39 39 -2 0 -21 -16 -43 -36z"/>
<path d="M23291 6634 c0 -11 3 -14 6 -6 3 7 2 16 -1 19 -3 4 -6 -2 -5 -13z"/>
<path d="M19931 6615 c0 -5 11 -30 24 -55 13 -25 24 -40 24 -35 0 6 -11 30
-24 55 -13 25 -24 41 -24 35z"/>
<path d="M1127 6497 c-31 -62 -50 -103 -42 -93 19 26 108 197 103 201 -1 2
-29 -47 -61 -108z"/>
<path d="M23301 6595 c-2 -52 42 -193 74 -242 20 -29 37 -53 40 -53 3 0 -11
24 -30 53 -26 39 -42 81 -59 158 -14 57 -25 95 -25 84z"/>
<path d="M10795 6580 c10 -11 20 -20 23 -20 3 0 -3 9 -13 20 -10 11 -20 20
-23 20 -3 0 3 -9 13 -20z"/>
<path d="M23880 6588 c0 -3 -11 -31 -25 -62 -14 -31 -22 -56 -20 -56 8 0 56
113 50 118 -3 3 -5 3 -5 0z"/>
<path d="M5818 6573 c6 -2 18 -2 25 0 6 3 1 5 -13 5 -14 0 -19 -2 -12 -5z"/>
<path d="M6040 6570 c14 -4 34 -8 45 -8 16 0 15 2 -5 8 -14 4 -34 8 -45 8 -16
0 -15 -2 5 -8z"/>
<path d="M12070 6570 c-9 -6 -10 -10 -3 -10 6 0 15 5 18 10 8 12 4 12 -15 0z"/>
<path d="M5778 6563 c7 -3 16 -2 19 1 4 3 -2 6 -13 5 -11 0 -14 -3 -6 -6z"/>
<path d="M5705 6550 c-13 -6 -15 -9 -5 -9 8 0 22 4 30 9 18 12 2 12 -25 0z"/>
<path d="M10849 6537 c26 -28 31 -32 31 -19 0 4 -13 16 -28 26 l-27 19 24 -26z"/>
<path d="M6158 6543 c7 -3 16 -2 19 1 4 3 -2 6 -13 5 -11 0 -14 -3 -6 -6z"/>
<path d="M6210 6526 c0 -2 7 -7 16 -10 8 -3 12 -2 9 4 -6 10 -25 14 -25 6z"/>
<path d="M16030 6526 c0 -2 7 -7 16 -10 8 -3 12 -2 9 4 -6 10 -25 14 -25 6z"/>
<path d="M6270 6500 c8 -5 20 -10 25 -10 6 0 3 5 -5 10 -8 5 -19 10 -25 10 -5
0 -3 -5 5 -10z"/>
<path d="M10890 6506 c0 -3 9 -10 20 -16 11 -6 20 -8 20 -6 0 3 -9 10 -20 16
-11 6 -20 8 -20 6z"/>
<path d="M11955 6500 c-3 -6 1 -7 9 -4 18 7 21 14 7 14 -6 0 -13 -4 -16 -10z"/>
<path d="M19986 6485 c13 -53 43 -139 43 -127 1 17 -39 152 -45 152 -2 0 -2
-11 2 -25z"/>
<path d="M5530 6480 c-9 -6 -10 -10 -3 -10 6 0 15 5 18 10 8 12 4 12 -15 0z"/>
<path d="M11910 6480 c-9 -6 -10 -10 -3 -10 6 0 15 5 18 10 8 12 4 12 -15 0z"/>
<path d="M16117 6479 c7 -7 15 -10 18 -7 3 3 -2 9 -12 12 -14 6 -15 5 -6 -5z"/>
<path d="M5465 6450 c-3 -6 1 -7 9 -4 18 7 21 14 7 14 -6 0 -13 -4 -16 -10z"/>
<path d="M10970 6456 c0 -2 7 -7 16 -10 8 -3 12 -2 9 4 -6 10 -25 14 -25 6z"/>
<path d="M16160 6456 c0 -2 7 -7 16 -10 8 -3 12 -2 9 4 -6 10 -25 14 -25 6z"/>
<path d="M23799 6423 c-13 -21 -39 -56 -59 -79 -27 -32 -25 -30 10 6 41 43 88
110 76 110 -2 0 -15 -17 -27 -37z"/>
<path d="M11010 6436 c0 -2 7 -7 16 -10 8 -3 12 -2 9 4 -6 10 -25 14 -25 6z"/>
<path d="M11800 6430 c-8 -5 -10 -10 -5 -10 6 0 17 5 25 10 8 5 11 10 5 10 -5
0 -17 -5 -25 -10z"/>
<path d="M16207 6429 c7 -7 15 -10 18 -7 3 3 -2 9 -12 12 -14 6 -15 5 -6 -5z"/>
<path d="M6447 6409 c7 -7 15 -10 18 -7 3 3 -2 9 -12 12 -14 6 -15 5 -6 -5z"/>
<path d="M11070 6410 c8 -5 20 -10 25 -10 6 0 3 5 -5 10 -8 5 -19 10 -25 10
-5 0 -3 -5 5 -10z"/>
<path d="M11735 6410 c-13 -6 -15 -9 -5 -9 8 0 22 4 30 9 18 12 2 12 -25 0z"/>
<path d="M16247 6409 c7 -7 15 -10 18 -7 3 3 -2 9 -12 12 -14 6 -15 5 -6 -5z"/>
<path d="M6490 6386 c0 -2 7 -7 16 -10 8 -3 12 -2 9 4 -6 10 -25 14 -25 6z"/>
<path d="M8105 6333 c-36 -33 -44 -44 -20 -25 38 28 93 83 84 82 -2 -1 -31
-26 -64 -57z"/>
<path d="M11165 6380 c11 -5 27 -9 35 -9 9 0 8 4 -5 9 -11 5 -27 9 -35 9 -9 0
-8 -4 5 -9z"/>
<path d="M11648 6383 c7 -3 16 -2 19 1 4 3 -2 6 -13 5 -11 0 -14 -3 -6 -6z"/>
<path d="M16307 6379 c7 -7 15 -10 18 -7 3 3 -2 9 -12 12 -14 6 -15 5 -6 -5z"/>
<path d="M1056 6363 c-6 -14 -5 -15 5 -6 7 7 10 15 7 18 -3 3 -9 -2 -12 -12z"/>
<path d="M11608 6373 c7 -3 16 -2 19 1 4 3 -2 6 -13 5 -11 0 -14 -3 -6 -6z"/>
<path d="M11263 6363 c9 -2 25 -2 35 0 9 3 1 5 -18 5 -19 0 -27 -2 -17 -5z"/>
<path d="M11513 6363 c9 -2 25 -2 35 0 9 3 1 5 -18 5 -19 0 -27 -2 -17 -5z"/>
<path d="M11363 6353 c26 -2 67 -2 90 0 23 2 2 3 -48 3 -49 0 -68 -1 -42 -3z"/>
<path d="M5260 6340 c-9 -6 -10 -10 -3 -10 6 0 15 5 18 10 8 12 4 12 -15 0z"/>
<path d="M6567 6339 c7 -7 15 -10 18 -7 3 3 -2 9 -12 12 -14 6 -15 5 -6 -5z"/>
<path d="M1030 6320 c-6 -11 -8 -20 -6 -20 3 0 10 9 16 20 6 11 8 20 6 20 -3
0 -10 -9 -16 -20z"/>
<path d="M20035 6188 c0 -84 -3 -175 -7 -203 -6 -42 -6 -45 3 -20 14 39 23
289 12 338 -5 26 -8 -10 -8 -115z"/>
<path d="M5205 6310 c-3 -6 1 -7 9 -4 18 7 21 14 7 14 -6 0 -13 -4 -16 -10z"/>
<path d="M5165 6290 c-3 -6 1 -7 9 -4 18 7 21 14 7 14 -6 0 -13 -4 -16 -10z"/>
<path d="M6640 6296 c0 -2 7 -7 16 -10 8 -3 12 -2 9 4 -6 10 -25 14 -25 6z"/>
<path d="M1005 6279 c-4 -6 -5 -12 -2 -15 2 -3 7 2 10 11 7 17 1 20 -8 4z"/>
<path d="M5130 6270 c-9 -6 -10 -10 -3 -10 6 0 15 5 18 10 8 12 4 12 -15 0z"/>
<path d="M16547 6226 c34 -31 74 -71 88 -89 13 -18 25 -28 25 -24 0 12 -90
105 -135 139 -22 17 -12 5 22 -26z"/>
<path d="M23477 6269 c7 -7 15 -10 18 -7 3 3 -2 9 -12 12 -14 6 -15 5 -6 -5z"/>
<path d="M23630 6270 c-9 -6 -10 -10 -3 -10 6 0 15 5 18 10 8 12 4 12 -15 0z"/>
<path d="M975 6220 c-9 -16 -13 -30 -11 -30 3 0 12 14 21 30 9 17 13 30 11 30
-3 0 -12 -13 -21 -30z"/>
<path d="M5075 6240 c-3 -6 1 -7 9 -4 18 7 21 14 7 14 -6 0 -13 -4 -16 -10z"/>
<path d="M6720 6246 c0 -2 7 -7 16 -10 8 -3 12 -2 9 4 -6 10 -25 14 -25 6z"/>
<path d="M5030 6220 c-9 -6 -10 -10 -3 -10 6 0 15 5 18 10 8 12 4 12 -15 0z"/>
<path d="M6760 6226 c0 -2 7 -7 16 -10 8 -3 12 -2 9 4 -6 10 -25 14 -25 6z"/>
<path d="M943 6163 c-3 -10 -8 -22 -11 -27 -3 -5 0 -6 5 -3 11 7 25 47 17 47
-3 0 -7 -8 -11 -17z"/>
<path d="M4925 6170 c-3 -6 1 -7 9 -4 18 7 21 14 7 14 -6 0 -13 -4 -16 -10z"/>
<path d="M7850 6170 c-8 -5 -10 -10 -5 -10 6 0 17 5 25 10 8 5 11 10 5 10 -5
0 -17 -5 -25 -10z"/>
<path d="M4870 6150 c-8 -5 -10 -10 -5 -10 6 0 17 5 25 10 8 5 11 10 5 10 -5
0 -17 -5 -25 -10z"/>
<path d="M6910 6150 c8 -5 20 -10 25 -10 6 0 3 5 -5 10 -8 5 -19 10 -25 10 -5
0 -3 -5 5 -10z"/>
<path d="M7800 6150 c-8 -5 -10 -10 -5 -10 6 0 17 5 25 10 8 5 11 10 5 10 -5
0 -17 -5 -25 -10z"/>
<path d="M7745 6130 c-16 -7 -17 -9 -3 -9 9 -1 20 4 23 9 7 11 7 11 -20 0z"/>
<path d="M900 6079 c-12 -23 -20 -43 -18 -45 3 -2 14 17 26 41 27 56 20 60 -8
4z"/>
<path d="M4745 6100 c-3 -6 1 -7 9 -4 18 7 21 14 7 14 -6 0 -13 -4 -16 -10z"/>
<path d="M7050 6100 c8 -5 20 -10 25 -10 6 0 3 5 -5 10 -8 5 -19 10 -25 10 -5
0 -3 -5 5 -10z"/>
<path d="M7660 6100 c-18 -12 -2 -12 25 0 13 6 15 9 5 9 -8 0 -22 -4 -30 -9z"/>
<path d="M16683 6051 c12 -27 23 -45 25 -41 3 9 -35 90 -43 90 -2 0 6 -22 18
-49z"/>
<path d="M4680 6080 c-8 -5 -10 -10 -5 -10 6 0 17 5 25 10 8 5 11 10 5 10 -5
0 -17 -5 -25 -10z"/>
<path d="M7130 6080 c14 -4 34 -8 45 -8 16 0 15 2 -5 8 -14 4 -34 8 -45 8 -16
0 -15 -2 5 -8z"/>
<path d="M7560 6080 c-20 -6 -21 -8 -5 -8 11 0 29 3 40 8 25 11 -1 11 -35 0z"/>
<path d="M7268 6063 c12 -2 30 -2 40 0 9 3 -1 5 -23 4 -22 0 -30 -2 -17 -4z"/>
<path d="M7428 6063 c12 -2 30 -2 40 0 9 3 -1 5 -23 4 -22 0 -30 -2 -17 -4z"/>
<path d="M4598 6053 c7 -3 16 -2 19 1 4 3 -2 6 -13 5 -11 0 -14 -3 -6 -6z"/>
<path d="M4500 6030 c-18 -12 -2 -12 25 0 13 6 15 9 5 9 -8 0 -22 -4 -30 -9z"/>
<path d="M846 5960 c-14 -34 -26 -67 -26 -73 0 -7 14 19 30 57 16 38 28 71 26
73 -2 2 -15 -24 -30 -57z"/>
<path d="M4438 6013 c7 -3 16 -2 19 1 4 3 -2 6 -13 5 -11 0 -14 -3 -6 -6z"/>
<path d="M4398 6003 c7 -3 16 -2 19 1 4 3 -2 6 -13 5 -11 0 -14 -3 -6 -6z"/>
<path d="M4288 5983 c6 -2 18 -2 25 0 6 3 1 5 -13 5 -14 0 -19 -2 -12 -5z"/>
<path d="M16716 5965 c4 -16 10 -79 14 -140 l8 -110 -3 115 c-1 63 -8 126 -14
140 -11 24 -11 24 -5 -5z"/>
<path d="M4120 5960 c-20 -6 -21 -8 -5 -8 11 0 34 4 50 8 27 7 27 8 5 8 -14 0
-36 -4 -50 -8z"/>
<path d="M3087 5939 c7 -7 15 -10 18 -7 3 3 -2 9 -12 12 -14 6 -15 5 -6 -5z"/>
<path d="M4008 5943 c7 -3 16 -2 19 1 4 3 -2 6 -13 5 -11 0 -14 -3 -6 -6z"/>
<path d="M3943 5933 c9 -2 25 -2 35 0 9 3 1 5 -18 5 -19 0 -27 -2 -17 -5z"/>
<path d="M3150 5920 c8 -5 24 -10 34 -10 26 0 18 6 -19 14 -22 5 -26 4 -15 -4z"/>
<path d="M3828 5923 c6 -2 18 -2 25 0 6 3 1 5 -13 5 -14 0 -19 -2 -12 -5z"/>
<path d="M20006 5904 c-4 -14 -5 -28 -3 -31 3 -2 8 8 11 23 4 14 5 28 3 31 -3
2 -8 -8 -11 -23z"/>
<path d="M3748 5913 c12 -2 30 -2 40 0 9 3 -1 5 -23 4 -22 0 -30 -2 -17 -4z"/>
<path d="M3373 5893 c37 -2 97 -2 135 0 37 2 6 3 -68 3 -74 0 -105 -1 -67 -3z"/>
<path d="M797 5817 c-26 -84 -37 -165 -35 -251 1 -81 1 -80 8 29 8 115 12 138
37 218 8 27 13 50 11 53 -3 2 -12 -20 -21 -49z"/>
<path d="M19982 5823 c-6 -21 -32 -80 -56 -131 -25 -50 -43 -92 -41 -92 14 0
123 246 113 255 -3 3 -10 -12 -16 -32z"/>
<path d="M16716 5620 c-4 -51 -6 -94 -3 -96 3 -3 8 36 12 86 4 50 5 93 2 96
-2 3 -8 -36 -11 -86z"/>
<path d="M19860 5570 c-6 -11 -8 -20 -6 -20 3 0 10 9 16 20 6 11 8 20 6 20 -3
0 -10 -9 -16 -20z"/>
<path d="M19815 5498 c-16 -24 -22 -38 -14 -31 15 12 53 73 46 73 -2 0 -17
-19 -32 -42z"/>
<path d="M16705 5360 c1 -113 7 -169 19 -208 10 -30 19 -52 21 -50 2 2 -3 26
-12 53 -10 31 -19 110 -23 205 l-8 155 3 -155z"/>
<path d="M771 5464 c-1 -26 37 -154 45 -154 4 0 3 8 -1 18 -4 9 -15 49 -25 87
-11 39 -19 60 -19 49z"/>
<path d="M19755 5413 c-98 -132 -226 -284 -334 -398 -63 -66 -69 -74 -22 -30
103 98 410 465 388 465 -2 0 -17 -17 -32 -37z"/>
<path d="M830 5266 c0 -11 78 -160 96 -182 8 -11 -9 26 -37 81 -56 108 -59
112 -59 101z"/>
<path d="M11823 5153 c26 -2 67 -2 90 0 23 2 2 3 -48 3 -49 0 -68 -1 -42 -3z"/>
<path d="M11738 5143 c6 -2 18 -2 25 0 6 3 1 5 -13 5 -14 0 -19 -2 -12 -5z"/>
<path d="M11973 5143 c9 -2 23 -2 30 0 6 3 -1 5 -18 5 -16 0 -22 -2 -12 -5z"/>
<path d="M11655 5130 c-13 -6 -15 -9 -5 -9 8 0 22 4 30 9 18 12 2 12 -25 0z"/>
<path d="M12150 5106 c0 -2 7 -7 16 -10 8 -3 12 -2 9 4 -6 10 -25 14 -25 6z"/>
<path d="M11535 5080 c-3 -6 1 -7 9 -4 18 7 21 14 7 14 -6 0 -13 -4 -16 -10z"/>
<path d="M12200 5086 c0 -2 7 -7 16 -10 8 -3 12 -2 9 4 -6 10 -25 14 -25 6z"/>
<path d="M11500 5060 c-9 -6 -10 -10 -3 -10 6 0 15 5 18 10 8 12 4 12 -15 0z"/>
<path d="M12250 5066 c0 -2 7 -7 16 -10 8 -3 12 -2 9 4 -6 10 -25 14 -25 6z"/>
<path d="M16760 5061 c0 -6 4 -13 10 -16 6 -3 7 1 4 9 -7 18 -14 21 -14 7z"/>
<path d="M11459 5033 c-13 -16 -12 -17 4 -4 16 13 21 21 13 21 -2 0 -10 -8
-17 -17z"/>
<path d="M959 5025 c5 -11 17 -29 26 -40 l16 -20 -10 20 c-5 11 -17 29 -26 40
l-16 20 10 -20z"/>
<path d="M16790 5011 c5 -11 15 -23 21 -27 6 -3 3 5 -6 20 -20 30 -30 35 -15
7z"/>
<path d="M11371 4955 c-54 -59 -102 -130 -101 -152 1 -4 12 13 25 39 14 26 53
77 86 113 34 36 59 65 56 65 -2 0 -32 -29 -66 -65z"/>
<path d="M12395 4985 c11 -9 29 -21 40 -26 l20 -10 -20 16 c-11 9 -29 21 -40
26 l-20 10 20 -16z"/>
<path d="M16820 4967 c0 -2 15 -16 33 -33 l32 -29 -29 33 c-28 30 -36 37 -36
29z"/>
<path d="M1013 4935 c9 -16 23 -39 32 -50 9 -11 7 -2 -6 20 -27 49 -47 72 -26
30z"/>
<path d="M12460 4947 c0 -3 18 -20 40 -37 22 -17 40 -29 40 -27 0 3 -18 20
-40 37 -22 17 -40 29 -40 27z"/>
<path d="M16886 4892 c5 -4 25 -21 44 -37 l35 -30 -34 38 c-19 20 -39 37 -45
37 -6 0 -6 -3 0 -8z"/>
<path d="M19235 4870 c-3 -6 1 -7 9 -4 18 7 21 14 7 14 -6 0 -13 -4 -16 -10z"/>
<path d="M1060 4858 c0 -4 14 -30 30 -56 17 -27 30 -54 30 -60 0 -6 4 -14 10
-17 15 -9 -4 36 -39 92 -17 26 -31 45 -31 41z"/>
<path d="M12619 4817 c26 -28 31 -32 31 -19 0 4 -13 16 -28 26 l-27 19 24 -26z"/>
<path d="M16990 4811 c14 -11 30 -21 35 -21 11 0 -7 14 -40 31 -13 7 -12 3 5
-10z"/>
<path d="M19055 4820 l-40 -7 35 -1 c19 0 46 4 60 8 32 10 2 10 -55 0z"/>
<path d="M18748 4813 c28 -2 76 -2 105 0 28 2 5 3 -53 3 -58 0 -81 -1 -52 -3z"/>
<path d="M18585 4800 c-13 -5 -14 -9 -5 -9 8 0 24 4 35 9 13 5 14 9 5 9 -8 0
-24 -4 -35 -9z"/>
<path d="M11251 4753 c-6 -21 -10 -51 -10 -68 1 -22 3 -18 9 17 5 25 11 56 15
67 3 12 4 21 1 21 -3 0 -10 -17 -15 -37z"/>
<path d="M12660 4787 c0 -2 35 -35 78 -73 42 -38 68 -58 57 -45 -24 28 -135
125 -135 118z"/>
<path d="M6133 4773 c26 -2 68 -2 95 0 26 2 4 3 -48 3 -52 0 -74 -1 -47 -3z"/>
<path d="M5988 4753 c7 -3 16 -2 19 1 4 3 -2 6 -13 5 -11 0 -14 -3 -6 -6z"/>
<path d="M6348 4753 c6 -2 18 -2 25 0 6 3 1 5 -13 5 -14 0 -19 -2 -12 -5z"/>
<path d="M17080 4756 c0 -2 7 -7 16 -10 8 -3 12 -2 9 4 -6 10 -25 14 -25 6z"/>
<path d="M18450 4750 c-9 -6 -10 -10 -3 -10 6 0 15 5 18 10 8 12 4 12 -15 0z"/>
<path d="M5890 4730 c-18 -12 -2 -12 25 0 13 6 15 9 5 9 -8 0 -22 -4 -30 -9z"/>
<path d="M6420 4736 c0 -2 7 -7 16 -10 8 -3 12 -2 9 4 -6 10 -25 14 -25 6z"/>
<path d="M17120 4736 c0 -2 7 -7 16 -10 8 -3 12 -2 9 4 -6 10 -25 14 -25 6z"/>
<path d="M17180 4706 c0 -2 7 -7 16 -10 8 -3 12 -2 9 4 -6 10 -25 14 -25 6z"/>
<path d="M21227 4703 c18 -2 50 -2 70 0 21 2 7 4 -32 4 -38 0 -55 -2 -38 -4z"/>
<path d="M6530 4665 c19 -19 36 -35 39 -35 3 0 -10 16 -29 35 -19 19 -36 35
-39 35 -3 0 10 -16 29 -35z"/>
<path d="M1156 4675 c50 -140 73 -198 73 -189 1 17 -45 148 -64 180 -9 16 -13
20 -9 9z"/>
<path d="M17237 4679 c7 -7 15 -10 18 -7 3 3 -2 9 -12 12 -14 6 -15 5 -6 -5z"/>
<path d="M18315 4680 c-3 -6 1 -7 9 -4 18 7 21 14 7 14 -6 0 -13 -4 -16 -10z"/>
<path d="M21428 4683 c7 -3 16 -2 19 1 4 3 -2 6 -13 5 -11 0 -14 -3 -6 -6z"/>
<path d="M5740 4660 c-9 -6 -10 -10 -3 -10 6 0 15 5 18 10 8 12 4 12 -15 0z"/>
<path d="M18280 4660 c-9 -6 -10 -10 -3 -10 6 0 15 5 18 10 8 12 4 12 -15 0z"/>
<path d="M21035 4660 c-3 -6 1 -7 9 -4 18 7 21 14 7 14 -6 0 -13 -4 -16 -10z"/>
<path d="M21510 4660 c8 -5 20 -10 25 -10 6 0 3 5 -5 10 -8 5 -19 10 -25 10
-5 0 -3 -5 5 -10z"/>
<path d="M11232 4620 c0 -19 2 -27 5 -17 2 9 2 25 0 35 -3 9 -5 1 -5 -18z"/>
<path d="M12860 4608 c41 -45 50 -53 50 -45 0 2 -21 23 -47 47 l-48 45 45 -47z"/>
<path d="M21567 4639 c7 -7 15 -10 18 -7 3 3 -2 9 -12 12 -14 6 -15 5 -6 -5z"/>
<path d="M18225 4630 c-3 -6 1 -7 9 -4 18 7 21 14 7 14 -6 0 -13 -4 -16 -10z"/>
<path d="M5669 4613 c-13 -16 -12 -17 4 -4 9 7 17 15 17 17 0 8 -8 3 -21 -13z"/>
<path d="M20933 4604 l-28 -25 33 22 c17 13 32 24 32 26 0 8 -11 1 -37 -23z"/>
<path d="M6587 4585 c9 -19 18 -33 21 -31 4 5 -26 66 -33 66 -3 0 3 -16 12
-35z"/>
<path d="M17407 4609 c7 -7 15 -10 18 -7 3 3 -2 9 -12 12 -14 6 -15 5 -6 -5z"/>
<path d="M18190 4610 c-9 -6 -10 -10 -3 -10 6 0 15 5 18 10 8 12 4 12 -15 0z"/>
<path d="M17460 4590 c8 -5 20 -10 25 -10 6 0 3 5 -5 10 -8 5 -19 10 -25 10
-5 0 -3 -5 5 -10z"/>
<path d="M18145 4590 c-3 -6 1 -7 9 -4 18 7 21 14 7 14 -6 0 -13 -4 -16 -10z"/>
<path d="M5594 4558 l-19 -23 23 19 c12 11 22 21 22 23 0 8 -8 2 -26 -19z"/>
<path d="M21697 4569 c7 -7 15 -10 18 -7 3 3 -2 9 -12 12 -14 6 -15 5 -6 -5z"/>
<path d="M11244 4475 c0 -55 1 -76 3 -47 2 29 2 74 0 100 -2 26 -3 2 -3 -53z"/>
<path d="M17530 4566 c0 -2 9 -6 20 -9 11 -3 18 -1 14 4 -5 9 -34 13 -34 5z"/>
<path d="M18075 4560 c-3 -6 1 -7 9 -4 18 7 21 14 7 14 -6 0 -13 -4 -16 -10z"/>
<path d="M12920 4557 c0 -3 55 -56 122 -118 68 -63 117 -106 109 -96 -18 23
-231 221 -231 214z"/>
<path d="M17625 4540 c27 -12 43 -12 25 0 -8 5 -22 9 -30 9 -10 0 -8 -3 5 -9z"/>
<path d="M18010 4540 c-8 -5 -10 -10 -5 -10 6 0 17 5 25 10 8 5 11 10 5 10 -5
0 -17 -5 -25 -10z"/>
<path d="M5539 4513 l-24 -28 28 24 c25 23 32 31 24 31 -2 0 -14 -12 -28 -27z"/>
<path d="M6612 4520 c0 -14 2 -19 5 -12 2 6 2 18 0 25 -3 6 -5 1 -5 -13z"/>
<path d="M17698 4523 c6 -2 18 -2 25 0 6 3 1 5 -13 5 -14 0 -19 -2 -12 -5z"/>
<path d="M17938 4523 c7 -3 16 -2 19 1 4 3 -2 6 -13 5 -11 0 -14 -3 -6 -6z"/>
<path d="M20811 4496 l-24 -31 28 27 c16 15 27 29 24 31 -2 3 -15 -10 -28 -27z"/>
<path d="M21773 4522 c4 -6 22 -21 39 -34 17 -12 28 -17 25 -10 -4 6 -22 21
-39 34 -17 12 -28 17 -25 10z"/>
<path d="M17783 4513 c26 -2 68 -2 95 0 26 2 4 3 -48 3 -52 0 -74 -1 -47 -3z"/>
<path d="M5479 4463 l-24 -28 28 24 c15 14 27 26 27 28 0 8 -8 1 -31 -24z"/>
<path d="M6617 4323 c-4 -93 -9 -181 -12 -198 l-5 -30 11 30 c10 30 26 365 17
365 -3 0 -8 -75 -11 -167z"/>
<path d="M1231 4454 c0 -11 3 -14 6 -6 3 7 2 16 -1 19 -3 4 -6 -2 -5 -13z"/>
<path d="M20762 4433 c-22 -33 -62 -126 -62 -145 0 -7 12 16 27 52 14 36 35
77 45 93 11 15 17 27 14 27 -2 0 -13 -12 -24 -27z"/>
<path d="M21889 4428 c19 -21 37 -36 39 -33 3 3 3 6 1 8 -2 1 -20 15 -39 32
l-35 30 34 -37z"/>
<path d="M5419 4413 l-24 -28 28 24 c15 14 27 26 27 28 0 8 -8 1 -31 -24z"/>
<path d="M1247 4385 c3 -27 9 -75 13 -105 6 -48 7 -50 8 -15 1 22 -5 69 -13
105 -12 56 -13 58 -8 15z"/>
<path d="M22025 4300 c49 -49 92 -90 95 -90 2 0 -36 41 -85 90 -49 50 -92 90
-95 90 -2 0 36 -40 85 -90z"/>
<path d="M5339 4353 c-13 -16 -12 -17 4 -4 16 13 21 21 13 21 -2 0 -10 -8 -17
-17z"/>
<path d="M11231 4353 c-1 -33 -21 -74 -55 -113 l-31 -35 36 33 c37 34 66 98
56 123 -3 8 -6 5 -6 -8z"/>
<path d="M13215 4280 c27 -27 51 -50 54 -50 3 0 -17 23 -44 50 -27 28 -51 50
-54 50 -3 0 17 -22 44 -50z"/>
<path d="M5190 4270 c-9 -6 -10 -10 -3 -10 6 0 15 5 18 10 8 12 4 12 -15 0z"/>
<path d="M20692 4245 c0 -16 2 -22 5 -12 2 9 2 23 0 30 -3 6 -5 -1 -5 -18z"/>
<path d="M5110 4240 c-18 -12 -2 -12 25 0 13 6 15 9 5 9 -8 0 -22 -4 -30 -9z"/>
<path d="M4148 4223 c34 -2 90 -2 125 0 34 2 6 3 -63 3 -69 0 -97 -1 -62 -3z"/>
<path d="M5030 4220 c-20 -6 -21 -8 -5 -8 11 0 29 3 40 8 25 11 -1 11 -35 0z"/>
<path d="M13319 4188 c25 -26 47 -45 50 -43 2 3 2 6 0 8 -2 1 -24 20 -49 42
l-45 40 44 -47z"/>
<path d="M1274 4130 c0 -52 1 -74 3 -47 2 26 2 68 0 95 -2 26 -3 4 -3 -48z"/>
<path d="M4043 4213 c9 -2 23 -2 30 0 6 3 -1 5 -18 5 -16 0 -22 -2 -12 -5z"/>
<path d="M4368 4213 c18 -2 45 -2 60 0 15 2 0 4 -33 4 -33 0 -45 -2 -27 -4z"/>
<path d="M11120 4200 c-9 -6 -10 -10 -3 -10 6 0 15 5 18 10 8 12 4 12 -15 0z"/>
<path d="M20682 4190 c-1 -14 3 -43 7 -65 6 -26 9 -31 9 -15 1 14 -3 43 -7 65
-6 26 -9 31 -9 15z"/>
<path d="M22130 4201 c0 -6 4 -13 10 -16 6 -3 7 1 4 9 -7 18 -14 21 -14 7z"/>
<path d="M4698 4193 c39 -2 105 -2 145 0 39 1 7 3 -73 3 -80 0 -112 -2 -72 -3z"/>
<path d="M3925 4170 c-3 -6 1 -7 9 -4 18 7 21 14 7 14 -6 0 -13 -4 -16 -10z"/>
<path d="M11050 4170 c-8 -5 -10 -10 -5 -10 6 0 17 5 25 10 8 5 11 10 5 10 -5
0 -17 -5 -25 -10z"/>
<path d="M3879 4133 c-32 -36 -53 -63 -47 -63 2 0 21 20 41 45 42 49 45 61 6
18z"/>
<path d="M10978 4153 c6 -2 18 -2 25 0 6 3 1 5 -13 5 -14 0 -19 -2 -12 -5z"/>
<path d="M22220 4118 c24 -27 45 -48 47 -48 8 0 0 9 -44 50 l-48 45 45 -47z"/>
<path d="M10913 4143 c9 -2 25 -2 35 0 9 3 1 5 -18 5 -19 0 -27 -2 -17 -5z"/>
<path d="M13420 4098 c41 -45 50 -53 50 -45 0 2 -21 23 -47 47 l-48 45 45 -47z"/>
<path d="M10434 4088 l-19 -23 23 19 c21 18 27 26 19 26 -2 0 -12 -10 -23 -22z"/>
<path d="M6571 4017 c-13 -39 -32 -89 -42 -109 -25 -49 -24 -63 1 -18 22 41
74 189 68 195 -2 3 -15 -28 -27 -68z"/>
<path d="M22300 4046 c25 -28 80 -71 80 -63 0 2 -24 23 -52 47 -30 25 -42 32
-28 16z"/>
<path d="M3810 4039 c-7 -11 -10 -23 -7 -25 2 -2 9 7 15 21 14 30 7 33 -8 4z"/>
<path d="M10388 4043 c-22 -26 -41 -64 -34 -71 3 -3 6 -1 6 5 0 6 11 27 25 47
26 39 28 47 3 19z"/>
<path d="M13486 4037 c3 -10 9 -15 12 -12 3 3 0 11 -7 18 -10 9 -11 8 -5 -6z"/>
<path d="M20710 4046 c0 -11 40 -86 45 -86 3 0 -4 19 -16 43 -23 45 -29 54
-29 43z"/>
<path d="M1257 3956 c-4 -44 -5 -81 -3 -83 6 -7 19 121 14 143 -2 10 -7 -17
-11 -60z"/>
<path d="M13565 3960 c33 -33 62 -60 64 -60 3 0 -21 27 -54 60 -33 33 -62 60
-64 60 -3 0 21 -27 54 -60z"/>
<path d="M3775 3948 c-27 -95 -35 -169 -33 -323 l1 -150 8 190 c5 145 12 206
27 260 11 38 19 71 17 73 -2 2 -11 -20 -20 -50z"/>
<path d="M22390 3976 c0 -2 8 -10 18 -17 15 -13 16 -12 3 4 -13 16 -21 21 -21
13z"/>
<path d="M10336 3934 c-4 -14 -5 -28 -3 -31 3 -2 8 8 11 23 4 14 5 28 3 31 -3
2 -8 -8 -11 -23z"/>
<path d="M20778 3923 c11 -16 30 -37 43 -48 12 -11 5 1 -16 28 -43 52 -57 63
-27 20z"/>
<path d="M13651 3885 c7 -11 34 -42 59 -70 73 -78 133 -165 184 -264 26 -50
49 -91 52 -91 13 0 -97 193 -148 260 -55 71 -177 208 -147 165z"/>
<path d="M10322 3865 c0 -16 2 -22 5 -12 2 9 2 23 0 30 -3 6 -5 -1 -5 -18z"/>
<path d="M22540 3876 c0 -2 7 -7 16 -10 8 -3 12 -2 9 4 -6 10 -25 14 -25 6z"/>
<path d="M1223 3767 c-12 -50 -21 -92 -19 -94 6 -6 48 157 44 172 -2 7 -13
-27 -25 -78z"/>
<path d="M22597 3849 c7 -7 15 -10 18 -7 3 3 -2 9 -12 12 -14 6 -15 5 -6 -5z"/>
<path d="M6490 3824 c-6 -14 -9 -46 -9 -72 2 -46 2 -45 9 14 4 33 10 66 14 72
4 7 5 12 1 12 -3 0 -10 -12 -15 -26z"/>
<path d="M10307 3753 c-4 -43 -9 -89 -12 -103 l-6 -25 11 25 c11 25 27 180 18
180 -3 0 -8 -35 -11 -77z"/>
<path d="M20924 3760 c101 -109 127 -134 69 -65 -28 33 -71 78 -94 100 -24 22
-13 6 25 -35z"/>
<path d="M22660 3820 c8 -5 20 -10 25 -10 6 0 3 5 -5 10 -8 5 -19 10 -25 10
-5 0 -3 -5 5 -10z"/>
<path d="M22730 3800 c8 -5 22 -9 30 -9 10 0 8 3 -5 9 -27 12 -43 12 -25 0z"/>
<path d="M23597 3803 c18 -2 50 -2 70 0 21 2 7 4 -32 4 -38 0 -55 -2 -38 -4z"/>
<path d="M23801 3806 c2 -2 42 -6 89 -9 59 -3 73 -3 45 3 -40 9 -142 13 -134
6z"/>
<path d="M23493 3793 c15 -2 37 -2 50 0 12 2 0 4 -28 4 -27 0 -38 -2 -22 -4z"/>
<path d="M22858 3773 c6 -2 18 -2 25 0 6 3 1 5 -13 5 -14 0 -19 -2 -12 -5z"/>
<path d="M23273 3773 c9 -2 25 -2 35 0 9 3 1 5 -18 5 -19 0 -27 -2 -17 -5z"/>
<path d="M24180 3730 c8 -5 20 -10 25 -10 6 0 3 5 -5 10 -8 5 -19 10 -25 10
-5 0 -3 -5 5 -10z"/>
<path d="M6490 3686 c0 -8 4 -17 9 -20 5 -4 7 3 4 14 -6 23 -13 26 -13 6z"/>
<path d="M1182 3628 c-6 -18 -13 -42 -17 -53 -4 -12 -1 -10 8 5 15 27 30 80
23 80 -3 0 -9 -15 -14 -32z"/>
<path d="M21049 3615 c6 -11 22 -33 37 -50 14 -16 21 -21 15 -10 -6 11 -22 34
-37 50 -14 17 -21 21 -15 10z"/>
<path d="M6547 3583 c10 -23 19 -82 23 -148 l7 -110 1 91 c2 88 -17 186 -38
199 -5 3 -2 -11 7 -32z"/>
<path d="M10253 3549 c-12 -21 -17 -37 -12 -33 11 6 42 64 37 69 -2 2 -13 -14
-25 -36z"/>
<path d="M1113 3464 c-23 -46 -38 -82 -34 -79 10 6 84 156 79 160 -2 2 -22
-34 -45 -81z"/>
<path d="M21123 3513 c5 -7 33 -56 63 -110 30 -54 54 -94 54 -89 0 14 -87 171
-107 193 -10 10 -14 13 -10 6z"/>
<path d="M10185 3458 l-40 -43 43 40 c23 21 42 40 42 42 0 8 -9 0 -45 -39z"/>
<path d="M3753 3430 c0 -25 2 -35 4 -22 2 12 2 32 0 45 -2 12 -4 2 -4 -23z"/>
<path d="M13965 3425 c8 -16 31 -48 51 -70 38 -41 29 -24 -16 31 -14 17 -31
39 -38 50 -7 10 -6 6 3 -11z"/>
<path d="M3762 3355 c0 -16 3 -50 7 -75 6 -33 9 -37 9 -15 0 17 -3 50 -7 75
-6 33 -9 37 -9 15z"/>
<path d="M1008 3284 c-31 -46 -52 -82 -47 -78 12 7 112 155 107 159 -1 1 -29
-35 -60 -81z"/>
<path d="M10050 3360 c-9 -6 -10 -10 -3 -10 6 0 15 5 18 10 8 12 4 12 -15 0z"/>
<path d="M9990 3330 c-9 -6 -10 -10 -3 -10 6 0 15 5 18 10 8 12 4 12 -15 0z"/>
<path d="M6562 3295 c0 -16 2 -22 5 -12 2 9 2 23 0 30 -3 6 -5 -1 -5 -18z"/>
<path d="M9930 3310 c-8 -5 -10 -10 -5 -10 6 0 17 5 25 10 8 5 11 10 5 10 -5
0 -17 -5 -25 -10z"/>
<path d="M14075 3300 c10 -11 20 -20 23 -20 3 0 -3 9 -13 20 -10 11 -20 20
-23 20 -3 0 3 -9 13 -20z"/>
<path d="M9865 3290 c-16 -7 -17 -9 -3 -9 9 -1 20 4 23 9 7 11 7 11 -20 0z"/>
<path d="M21246 3285 c4 -11 20 -56 35 -100 15 -44 28 -76 28 -71 2 17 -40
141 -55 166 -10 16 -13 18 -8 5z"/>
<path d="M9740 3260 c-20 -6 -21 -8 -5 -8 11 0 31 4 45 8 20 6 21 8 5 8 -11 0
-31 -4 -45 -8z"/>
<path d="M6543 3214 c-6 -27 -10 -51 -8 -52 6 -6 27 78 23 90 -2 6 -9 -11 -15
-38z"/>
<path d="M9560 3240 c-41 -6 -42 -7 -10 -8 19 0 55 3 80 7 40 8 41 8 10 8 -19
0 -55 -3 -80 -7z"/>
<path d="M14157 3239 c7 -7 15 -10 18 -7 3 3 -2 9 -12 12 -14 6 -15 5 -6 -5z"/>
<path d="M3782 3205 c0 -16 2 -22 5 -12 2 9 2 23 0 30 -3 6 -5 -1 -5 -18z"/>
<path d="M9348 3223 c7 -3 16 -2 19 1 4 3 -2 6 -13 5 -11 0 -14 -3 -6 -6z"/>
<path d="M9278 3213 c12 -2 30 -2 40 0 9 3 -1 5 -23 4 -22 0 -30 -2 -17 -4z"/>
<path d="M9125 3190 c-13 -5 -14 -9 -5 -9 8 0 24 4 35 9 13 5 14 9 5 9 -8 0
-24 -4 -35 -9z"/>
<path d="M841 3077 c-66 -71 -80 -88 -37 -47 61 58 153 161 144 160 -1 -1 -50
-51 -107 -113z"/>
<path d="M3792 3140 c0 -19 2 -27 5 -17 2 9 2 25 0 35 -3 9 -5 1 -5 -18z"/>
<path d="M8980 3150 c-9 -6 -10 -10 -3 -10 6 0 15 5 18 10 8 12 4 12 -15 0z"/>
<path d="M6516 3135 c-9 -26 -7 -32 5 -12 6 10 9 21 6 23 -2 3 -7 -2 -11 -11z"/>
<path d="M14370 3136 c0 -2 8 -10 18 -17 15 -13 16 -12 3 4 -13 16 -21 21 -21
13z"/>
<path d="M8915 3120 c-3 -6 1 -7 9 -4 18 7 21 14 7 14 -6 0 -13 -4 -16 -10z"/>
<path d="M8875 3100 c-3 -6 1 -7 9 -4 18 7 21 14 7 14 -6 0 -13 -4 -16 -10z"/>
<path d="M14461 3056 c25 -28 58 -72 73 -98 34 -59 46 -64 14 -6 -13 23 -48
67 -78 98 -49 51 -50 51 -9 6z"/>
<path d="M3803 3060 c0 -25 2 -35 4 -22 2 12 2 32 0 45 -2 12 -4 2 -4 -23z"/>
<path d="M6467 3027 c-20 -40 -30 -63 -21 -52 19 24 67 116 62 120 -2 2 -20
-29 -41 -68z"/>
<path d="M21311 3084 c0 -11 3 -14 6 -6 3 7 2 16 -1 19 -3 4 -6 -2 -5 -13z"/>
<path d="M8840 3080 c-9 -6 -10 -10 -3 -10 6 0 15 5 18 10 8 12 4 12 -15 0z"/>
<path d="M21322 3035 c0 -16 2 -22 5 -12 2 9 2 23 0 30 -3 6 -5 -1 -5 -18z"/>
<path d="M8749 3013 l-24 -26 27 19 c15 10 28 22 28 27 0 12 -5 8 -31 -20z"/>
<path d="M3813 2965 c0 -27 2 -38 4 -22 2 15 2 37 0 50 -2 12 -4 0 -4 -28z"/>
<path d="M21334 2875 c0 -71 1 -99 3 -62 2 37 2 96 0 130 -2 34 -3 4 -3 -68z"/>
<path d="M8665 2938 l-50 -53 53 50 c48 46 57 55 49 55 -1 0 -25 -24 -52 -52z"/>
<path d="M699 2943 l-24 -28 28 24 c25 23 32 31 24 31 -2 0 -14 -12 -28 -27z"/>
<path d="M6346 2862 c-52 -56 -61 -69 -27 -37 47 45 118 126 109 125 -1 -1
-39 -40 -82 -88z"/>
<path d="M3824 2800 c0 -63 1 -89 3 -57 2 31 2 83 0 115 -2 31 -3 5 -3 -58z"/>
<path d="M619 2883 c-13 -16 -12 -17 4 -4 16 13 21 21 13 21 -2 0 -10 -8 -17
-17z"/>
<path d="M14577 2880 c3 -14 12 -41 20 -60 11 -30 12 -31 8 -6 -4 16 -13 43
-20 60 -11 23 -13 25 -8 6z"/>
<path d="M8583 2848 c-36 -41 -110 -158 -99 -158 2 0 16 20 30 44 14 24 42 65
61 90 37 49 41 60 8 24z"/>
<path d="M514 2814 c-18 -14 -18 -15 4 -4 12 6 22 13 22 15 0 8 -5 6 -26 -11z"/>
<path d="M430 2770 c-9 -6 -10 -10 -3 -10 6 0 15 5 18 10 8 12 4 12 -15 0z"/>
<path d="M6215 2748 c-51 -37 -58 -46 -20 -24 43 25 69 45 64 50 -2 2 -22 -10
-44 -26z"/>
<path d="M14612 2760 c0 -14 2 -19 5 -12 2 6 2 18 0 25 -3 6 -5 1 -5 -13z"/>
<path d="M390 2750 c-9 -6 -10 -10 -3 -10 6 0 15 5 18 10 8 12 4 12 -15 0z"/>
<path d="M21316 2694 c-3 -26 -4 -49 -2 -52 3 -2 8 17 11 43 4 25 5 48 3 51
-3 2 -8 -17 -12 -42z"/>
<path d="M14623 2660 c0 -41 2 -58 4 -37 2 20 2 54 0 75 -2 20 -4 3 -4 -38z"/>
<path d="M280 2700 c-8 -5 -10 -10 -5 -10 6 0 17 5 25 10 8 5 11 10 5 10 -5 0
-17 -5 -25 -10z"/>
<path d="M6110 2680 c-9 -6 -10 -10 -3 -10 6 0 15 5 18 10 8 12 4 12 -15 0z"/>
<path d="M3812 2650 c0 -19 2 -27 5 -17 2 9 2 25 0 35 -3 9 -5 1 -5 -18z"/>
<path d="M8455 2649 c-9 -17 -15 -33 -13 -35 3 -2 12 12 21 31 21 43 13 47 -8
4z"/>
<path d="M140 2650 c-8 -5 -10 -10 -5 -10 6 0 17 5 25 10 8 5 11 10 5 10 -5 0
-17 -5 -25 -10z"/>
<path d="M6040 2650 c-8 -5 -10 -10 -5 -10 6 0 17 5 25 10 8 5 11 10 5 10 -5
0 -17 -5 -25 -10z"/>
<path d="M75 2630 c-13 -6 -15 -9 -5 -9 8 0 22 4 30 9 18 12 2 12 -25 0z"/>
<path d="M21296 2599 c-8 -42 0 -50 9 -9 4 17 5 34 2 36 -2 3 -7 -10 -11 -27z"/>
<path d="M3802 2590 c0 -14 2 -19 5 -12 2 6 2 18 0 25 -3 6 -5 1 -5 -13z"/>
<path d="M5878 2603 c7 -3 16 -2 19 1 4 3 -2 6 -13 5 -11 0 -14 -3 -6 -6z"/>
<path d="M5765 2580 c-13 -5 -14 -9 -5 -9 8 0 24 4 35 9 13 5 14 9 5 9 -8 0
-24 -4 -35 -9z"/>
<path d="M8410 2553 c-18 -40 -60 -165 -59 -177 0 -6 15 30 33 79 18 50 36 98
41 108 12 28 -1 19 -15 -10z"/>
<path d="M14602 2523 c-19 -91 -75 -195 -150 -277 l-66 -71 61 58 c33 32 77
86 97 120 39 65 80 184 74 214 -2 9 -9 -10 -16 -44z"/>
<path d="M5665 2560 c-13 -5 -14 -9 -5 -9 8 0 24 4 35 9 13 5 14 9 5 9 -8 0
-24 -4 -35 -9z"/>
<path d="M3782 2523 c-15 -48 -8 -55 8 -8 7 20 10 38 8 41 -3 2 -10 -13 -16
-33z"/>
<path d="M21276 2519 c-8 -42 0 -50 9 -9 4 17 5 34 2 36 -2 3 -7 -10 -11 -27z"/>
<path d="M5568 2533 c7 -3 16 -2 19 1 4 3 -2 6 -13 5 -11 0 -14 -3 -6 -6z"/>
<path d="M5480 2510 c-8 -5 -10 -10 -5 -10 6 0 17 5 25 10 8 5 11 10 5 10 -5
0 -17 -5 -25 -10z"/>
<path d="M5425 2490 c-3 -6 1 -7 9 -4 18 7 21 14 7 14 -6 0 -13 -4 -16 -10z"/>
<path d="M3752 2445 c-17 -37 -14 -45 4 -12 9 16 14 31 11 33 -2 2 -9 -7 -15
-21z"/>
<path d="M21225 2352 c-59 -179 -115 -365 -114 -382 0 -8 16 37 35 100 19 63
55 177 80 253 25 76 44 140 42 142 -2 2 -21 -48 -43 -113z"/>
<path d="M5234 2366 c-28 -25 -63 -62 -78 -83 -26 -35 -25 -35 12 6 21 24 59
61 83 82 24 21 42 39 39 39 -3 0 -28 -20 -56 -44z"/>
<path d="M3712 2357 c-11 -23 -35 -67 -52 -97 -17 -30 -24 -46 -15 -35 24 29
98 166 93 170 -2 3 -14 -14 -26 -38z"/>
<path d="M8331 2316 c-6 -25 -11 -53 -10 -63 0 -10 7 9 15 41 8 33 13 61 10
63 -2 2 -9 -16 -15 -41z"/>
<path d="M5085 2184 c-40 -63 -61 -109 -45 -99 6 3 10 11 10 17 0 6 18 39 40
74 22 35 38 64 35 64 -2 0 -21 -25 -40 -56z"/>
<path d="M8305 2180 c-4 -28 -5 -53 -2 -56 2 -3 7 19 11 47 4 28 5 53 3 56 -3
2 -8 -19 -12 -47z"/>
<path d="M3573 2123 c-62 -97 -65 -103 -60 -103 3 0 22 28 44 63 22 34 47 74
57 90 10 15 16 27 13 27 -3 0 -27 -35 -54 -77z"/>
<path d="M14345 2160 c-3 -6 1 -7 9 -4 18 7 21 14 7 14 -6 0 -13 -4 -16 -10z"/>
<path d="M14310 2140 c-9 -6 -10 -10 -3 -10 6 0 15 5 18 10 8 12 4 12 -15 0z"/>
<path d="M14270 2120 c-9 -6 -10 -10 -3 -10 6 0 15 5 18 10 8 12 4 12 -15 0z"/>
<path d="M8293 2075 c0 -22 2 -30 4 -17 2 12 2 30 0 40 -3 9 -5 -1 -4 -23z"/>
<path d="M14215 2090 c-3 -6 1 -7 9 -4 18 7 21 14 7 14 -6 0 -13 -4 -16 -10z"/>
<path d="M5002 2025 c-17 -37 -14 -45 4 -12 9 16 14 31 11 33 -2 2 -9 -7 -15
-21z"/>
<path d="M8283 1975 c0 -33 2 -45 4 -27 2 18 2 45 0 60 -2 15 -4 0 -4 -33z"/>
<path d="M14127 2012 c-38 -42 -47 -87 -45 -224 l2 -133 5 145 c6 144 12 170
49 213 20 23 10 22 -11 -1z"/>
<path d="M3480 1970 c-11 -22 -18 -40 -15 -40 2 0 14 18 25 40 11 22 18 40 15
40 -2 0 -14 -18 -25 -40z"/>
<path d="M4972 1943 c-15 -48 -8 -55 8 -8 7 20 10 38 8 41 -3 2 -10 -13 -16
-33z"/>
<path d="M21092 1888 c-7 -36 -12 -76 -11 -89 0 -13 7 12 15 55 8 44 13 84 11
89 -2 6 -8 -19 -15 -55z"/>
<path d="M3445 1909 c-4 -6 -5 -12 -2 -15 2 -3 7 2 10 11 7 17 1 20 -8 4z"/>
<path d="M8274 1770 c0 -80 2 -112 3 -72 2 39 2 105 0 145 -1 39 -3 7 -3 -73z"/>
<path d="M4936 1832 c-9 -32 -16 -65 -15 -73 0 -8 9 17 20 55 11 38 18 70 16
73 -2 2 -12 -23 -21 -55z"/>
<path d="M3411 1829 c-47 -108 -64 -203 -59 -328 3 -64 11 -127 17 -141 l12
-25 -7 25 c-3 14 -8 75 -11 137 -6 123 8 211 52 317 13 33 23 61 21 63 -2 2
-13 -20 -25 -48z"/>
<path d="M21074 1655 c0 -66 1 -92 3 -57 2 34 2 88 0 120 -2 31 -3 3 -3 -63z"/>
<path d="M4892 1642 c-12 -57 -22 -113 -21 -125 0 -12 11 30 24 93 14 63 23
119 22 125 -2 5 -13 -37 -25 -93z"/>
<path d="M14094 1545 c0 -60 1 -84 3 -52 2 32 2 81 0 110 -2 29 -3 3 -3 -58z"/>
<path d="M8283 1580 c0 -25 2 -35 4 -22 2 12 2 32 0 45 -2 12 -4 2 -4 -23z"/>
<path d="M8292 1515 c0 -11 4 -31 8 -45 6 -20 8 -21 8 -5 0 11 -4 31 -8 45 -6
20 -8 21 -8 5z"/>
<path d="M21085 1495 c7 -57 32 -137 50 -160 15 -18 15 -17 0 12 -8 18 -24 68
-35 110 -11 43 -18 60 -15 38z"/>
<path d="M4852 1415 c-7 -44 -15 -91 -19 -105 -3 -14 -3 -22 0 -19 10 9 39
156 35 181 -2 13 -9 -13 -16 -57z"/>
<path d="M8311 1430 c0 -8 4 -24 9 -35 5 -13 9 -14 9 -5 0 8 -4 24 -9 35 -5
13 -9 14 -9 5z"/>
<path d="M14078 1380 c-4 -30 -9 -71 -12 -90 -3 -19 1 -10 9 20 8 30 14 71 12
90 -2 29 -3 25 -9 -20z"/>
<path d="M16705 1400 c-25 -11 1 -11 35 0 20 6 21 8 5 8 -11 0 -29 -3 -40 -8z"/>
<path d="M16860 1400 c34 -11 60 -11 35 0 -11 5 -29 8 -40 8 -16 0 -15 -2 5
-8z"/>
<path d="M16950 1376 c0 -2 7 -7 16 -10 8 -3 12 -2 9 4 -6 10 -25 14 -25 6z"/>
<path d="M8330 1366 c0 -19 73 -144 106 -181 l36 -40 -33 44 c-18 24 -50 76
-71 115 -21 39 -38 67 -38 62z"/>
<path d="M16585 1350 c-3 -6 1 -7 9 -4 18 7 21 14 7 14 -6 0 -13 -4 -16 -10z"/>
<path d="M17007 1349 c7 -7 15 -10 18 -7 3 3 -2 9 -12 12 -14 6 -15 5 -6 -5z"/>
<path d="M3380 1325 c0 -24 63 -114 112 -160 l53 -50 -52 55 c-29 30 -66 80
-82 110 -17 30 -31 51 -31 45z"/>
<path d="M16475 1258 l-60 -63 63 60 c34 33 62 61 62 62 0 8 -10 -1 -65 -59z"/>
<path d="M17094 1302 c8 -13 66 -56 66 -49 0 3 -17 17 -37 33 -20 15 -33 23
-29 16z"/>
<path d="M21167 1282 c10 -18 31 -45 47 -60 l30 -27 -29 35 c-17 20 -38 47
-48 60 -17 24 -17 24 0 -8z"/>
<path d="M4796 1207 c-9 -24 -33 -64 -53 -88 -35 -42 -35 -43 -5 -14 32 29 89
131 80 141 -3 2 -13 -15 -22 -39z"/>
<path d="M14051 1234 c0 -11 3 -14 6 -6 3 7 2 16 -1 19 -3 4 -6 -2 -5 -13z"/>
<path d="M17200 1215 c19 -19 36 -35 39 -35 3 0 -10 16 -29 35 -19 19 -36 35
-39 35 -3 0 10 -16 29 -35z"/>
<path d="M14016 1122 c-37 -115 -39 -122 -21 -87 18 37 58 166 53 171 -2 2
-17 -36 -32 -84z"/>
<path d="M17330 1095 c47 -47 87 -85 90 -85 2 0 -33 38 -80 85 -47 47 -87 85
-90 85 -2 0 33 -38 80 -85z"/>
<path d="M21290 1166 c0 -2 7 -7 16 -10 8 -3 12 -2 9 4 -6 10 -25 14 -25 6z"/>
<path d="M21347 1139 c7 -7 15 -10 18 -7 3 3 -2 9 -12 12 -14 6 -15 5 -6 -5z"/>
<path d="M18188 1133 c29 -2 74 -2 100 0 26 2 2 3 -53 3 -55 0 -76 -1 -47 -3z"/>
<path d="M8500 1126 c0 -2 8 -10 18 -17 15 -13 16 -12 3 4 -13 16 -21 21 -21
13z"/>
<path d="M16334 1059 c-19 -39 -34 -73 -32 -75 2 -2 21 30 41 71 20 41 35 75
32 75 -3 0 -21 -32 -41 -71z"/>
<path d="M18038 1113 c7 -3 16 -2 19 1 4 3 -2 6 -13 5 -11 0 -14 -3 -6 -6z"/>
<path d="M18418 1113 c7 -3 16 -2 19 1 4 3 -2 6 -13 5 -11 0 -14 -3 -6 -6z"/>
<path d="M21400 1116 c0 -2 9 -6 20 -9 11 -3 18 -1 14 4 -5 9 -34 13 -34 5z"/>
<path d="M21480 1090 c8 -5 22 -9 30 -9 10 0 8 3 -5 9 -27 12 -43 12 -25 0z"/>
<path d="M4679 1063 c-13 -16 -12 -17 4 -4 16 13 21 21 13 21 -2 0 -10 -8 -17
-17z"/>
<path d="M8587 1069 c7 -7 15 -10 18 -7 3 3 -2 9 -12 12 -14 6 -15 5 -6 -5z"/>
<path d="M17910 1070 c-8 -5 -10 -10 -5 -10 6 0 17 5 25 10 8 5 11 10 5 10 -5
0 -17 -5 -25 -10z"/>
<path d="M18567 1069 c7 -7 15 -10 18 -7 3 3 -2 9 -12 12 -14 6 -15 5 -6 -5z"/>
<path d="M17870 1050 c-9 -6 -10 -10 -3 -10 6 0 15 5 18 10 8 12 4 12 -15 0z"/>
<path d="M3680 1046 c0 -2 7 -7 16 -10 8 -3 12 -2 9 4 -6 10 -25 14 -25 6z"/>
<path d="M3750 1020 c8 -5 22 -9 30 -9 10 0 8 3 -5 9 -27 12 -43 12 -25 0z"/>
<path d="M4580 1020 c-8 -5 -10 -10 -5 -10 6 0 17 5 25 10 8 5 11 10 5 10 -5
0 -17 -5 -25 -10z"/>
<path d="M8708 1023 c7 -3 16 -2 19 1 4 3 -2 6 -13 5 -11 0 -14 -3 -6 -6z"/>
<path d="M21650 1026 c0 -2 7 -7 16 -10 8 -3 12 -2 9 4 -6 10 -25 14 -25 6z"/>
<path d="M8748 1013 c6 -2 18 -2 25 0 6 3 1 5 -13 5 -14 0 -19 -2 -12 -5z"/>
<path d="M9393 1013 c31 -2 83 -2 115 0 31 2 5 3 -58 3 -63 0 -89 -1 -57 -3z"/>
<path d="M4490 1000 c-20 -6 -21 -8 -5 -8 11 0 29 3 40 8 25 11 -1 11 -35 0z"/>
<path d="M8908 1003 c34 -2 90 -2 125 0 34 2 6 3 -63 3 -69 0 -97 -1 -62 -3z"/>
<path d="M17775 1000 c-3 -6 1 -7 9 -4 18 7 21 14 7 14 -6 0 -13 -4 -16 -10z"/>
<path d="M3858 993 c7 -3 16 -2 19 1 4 3 -2 6 -13 5 -11 0 -14 -3 -6 -6z"/>
<path d="M13957 958 c-9 -23 -15 -43 -13 -45 2 -2 11 15 20 38 9 23 15 43 13
45 -2 2 -11 -15 -20 -38z"/>
<path d="M17730 980 c-8 -5 -10 -10 -5 -10 6 0 17 5 25 10 8 5 11 10 5 10 -5
0 -17 -5 -25 -10z"/>
<path d="M18745 970 c10 -11 20 -20 23 -20 3 0 -3 9 -13 20 -10 11 -20 20 -23
20 -3 0 3 -9 13 -20z"/>
<path d="M3973 973 c9 -2 25 -2 35 0 9 3 1 5 -18 5 -19 0 -27 -2 -17 -5z"/>
<path d="M4300 970 c-27 -6 -29 -8 -10 -8 14 -1 43 3 65 7 33 7 35 9 10 9 -16
-1 -46 -4 -65 -8z"/>
<path d="M9709 950 c23 -17 60 -58 81 -92 22 -34 40 -57 40 -53 0 33 -124 175
-153 175 -6 0 9 -14 32 -30z"/>
<path d="M4043 963 c9 -2 25 -2 35 0 9 3 1 5 -18 5 -19 0 -27 -2 -17 -5z"/>
<path d="M16281 939 c-6 -18 -9 -34 -7 -36 2 -2 9 10 15 28 6 18 9 34 7 36 -2
2 -9 -10 -15 -28z"/>
<path d="M17500 956 c0 -2 7 -7 16 -10 8 -3 12 -2 9 4 -6 10 -25 14 -25 6z"/>
<path d="M21787 949 c7 -7 15 -10 18 -7 3 3 -2 9 -12 12 -14 6 -15 5 -6 -5z"/>
<path d="M18831 895 c103 -110 163 -220 211 -385 15 -52 27 -89 27 -81 2 29
-42 168 -74 237 -43 95 -101 178 -167 239 l-53 50 56 -60z"/>
<path d="M17583 933 c9 -2 23 -2 30 0 6 3 -1 5 -18 5 -16 0 -22 -2 -12 -5z"/>
<path d="M21860 907 c0 -3 26 -24 58 -48 31 -23 52 -36 45 -28 -14 17 -103 83
-103 76z"/>
<path d="M13917 865 c-24 -50 -20 -58 4 -12 11 22 19 41 17 43 -3 2 -12 -12
-21 -31z"/>
<path d="M16251 859 c-6 -18 -9 -34 -7 -36 2 -2 9 10 15 28 6 18 9 34 7 36 -2
2 -9 -10 -15 -28z"/>
<path d="M22070 725 c130 -138 139 -147 93 -90 -23 28 -74 82 -115 120 -61 59
-58 55 22 -30z"/>
<path d="M13844 708 c-27 -56 -64 -126 -82 -157 -18 -32 -23 -45 -11 -31 23
27 153 280 147 286 -2 2 -26 -42 -54 -98z"/>
<path d="M16226 795 c-3 -9 -6 -22 -5 -28 0 -7 5 -1 10 12 5 13 8 26 5 28 -2
2 -6 -3 -10 -12z"/>
<path d="M9830 785 c0 -5 5 -17 10 -25 5 -8 10 -10 10 -5 0 6 -5 17 -10 25 -5
8 -10 11 -10 5z"/>
<path d="M16197 708 c-9 -23 -15 -43 -13 -45 2 -2 11 15 20 38 9 23 15 43 13
45 -2 2 -11 -15 -20 -38z"/>
<path d="M9857 710 c4 -19 10 -53 14 -75 l6 -40 1 35 c0 19 -6 53 -13 75 -14
39 -14 39 -8 5z"/>
<path d="M11925 670 c-13 -6 -5 -7 25 -3 25 3 47 7 49 9 9 8 -55 2 -74 -6z"/>
<path d="M12063 673 c9 -2 25 -2 35 0 9 3 1 5 -18 5 -19 0 -27 -2 -17 -5z"/>
<path d="M12128 663 c7 -3 16 -2 19 1 4 3 -2 6 -13 5 -11 0 -14 -3 -6 -6z"/>
<path d="M11855 650 c-3 -6 1 -7 9 -4 18 7 21 14 7 14 -6 0 -13 -4 -16 -10z"/>
<path d="M12190 650 c8 -5 20 -10 25 -10 6 0 3 5 -5 10 -8 5 -19 10 -25 10 -5
0 -3 -5 5 -10z"/>
<path d="M16162 621 c-6 -17 -9 -31 -6 -31 7 0 25 52 20 57 -2 2 -8 -10 -14
-26z"/>
<path d="M12260 620 c8 -5 20 -10 25 -10 6 0 3 5 -5 10 -8 5 -19 10 -25 10 -5
0 -3 -5 5 -10z"/>
<path d="M11744 594 c-18 -14 -18 -15 4 -4 12 6 22 13 22 15 0 8 -5 6 -26 -11z"/>
<path d="M12310 600 c8 -5 20 -10 25 -10 6 0 3 5 -5 10 -8 5 -19 10 -25 10 -5
0 -3 -5 5 -10z"/>
<path d="M9884 500 c0 -52 1 -74 3 -47 2 26 2 68 0 95 -2 26 -3 4 -3 -48z"/>
<path d="M12357 579 c7 -7 15 -10 18 -7 3 3 -2 9 -12 12 -14 6 -15 5 -6 -5z"/>
<path d="M16131 553 c-10 -26 -10 -27 4 -9 8 11 15 23 15 28 0 15 -7 8 -19
-19z"/>
<path d="M22231 538 c18 -27 34 -48 36 -48 7 0 -16 35 -42 65 -20 23 -19 18 6
-17z"/>
<path d="M11645 524 l-40 -36 43 32 c36 27 49 40 40 40 -2 0 -21 -16 -43 -36z"/>
<path d="M12457 529 c7 -7 15 -10 18 -7 3 3 -2 9 -12 12 -14 6 -15 5 -6 -5z"/>
<path d="M1088 523 c34 -2 90 -2 125 0 34 2 6 3 -63 3 -69 0 -97 -1 -62 -3z"/>
<path d="M863 513 c9 -2 23 -2 30 0 6 3 -1 5 -18 5 -16 0 -22 -2 -12 -5z"/>
<path d="M1393 513 c9 -2 25 -2 35 0 9 3 1 5 -18 5 -19 0 -27 -2 -17 -5z"/>
<path d="M12497 509 c7 -7 15 -10 18 -7 3 3 -2 9 -12 12 -14 6 -15 5 -6 -5z"/>
<path d="M16070 448 c-23 -40 -65 -102 -92 -138 -37 -49 -40 -55 -12 -25 37
40 108 145 138 203 29 57 10 34 -34 -40z"/>
<path d="M818 503 c7 -3 16 -2 19 1 4 3 -2 6 -13 5 -11 0 -14 -3 -6 -6z"/>
<path d="M1458 503 c6 -2 18 -2 25 0 6 3 1 5 -13 5 -14 0 -19 -2 -12 -5z"/>
<path d="M1535 490 c11 -5 27 -9 35 -9 9 0 8 4 -5 9 -11 5 -27 9 -35 9 -9 0
-8 -4 5 -9z"/>
<path d="M11525 424 l-70 -66 73 63 c65 56 78 69 69 69 -2 0 -34 -30 -72 -66z"/>
<path d="M13685 453 c-22 -19 -31 -31 -20 -25 19 9 74 63 64 62 -2 -1 -22 -17
-44 -37z"/>
<path d="M1617 469 c7 -7 15 -10 18 -7 3 3 -2 9 -12 12 -14 6 -15 5 -6 -5z"/>
<path d="M22296 435 c15 -27 32 -54 37 -60 15 -16 -29 68 -48 90 -9 11 -4 -2
11 -30z"/>
<path d="M12590 466 c0 -2 7 -7 16 -10 8 -3 12 -2 9 4 -6 10 -25 14 -25 6z"/>
<path d="M617 409 c-47 -41 -101 -107 -146 -181 -12 -21 -20 -38 -18 -38 3 0
16 17 28 38 48 79 102 144 150 182 28 22 47 40 42 40 -4 0 -30 -19 -56 -41z"/>
<path d="M1680 440 c8 -5 20 -10 25 -10 6 0 3 5 -5 10 -8 5 -19 10 -25 10 -5
0 -3 -5 5 -10z"/>
<path d="M12650 440 c8 -5 20 -10 25 -10 6 0 3 5 -5 10 -8 5 -19 10 -25 10 -5
0 -3 -5 5 -10z"/>
<path d="M1727 419 c7 -7 15 -10 18 -7 3 3 -2 9 -12 12 -14 6 -15 5 -6 -5z"/>
<path d="M12720 416 c0 -2 9 -6 20 -9 11 -3 18 -1 14 4 -5 9 -34 13 -34 5z"/>
<path d="M1760 407 c0 -2 15 -14 33 -27 20 -15 27 -17 18 -6 -13 16 -51 41
-51 33z"/>
<path d="M19077 365 c3 -27 9 -86 14 -130 l8 -80 -5 95 c-2 52 -9 111 -14 130
-8 31 -9 29 -3 -15z"/>
<path d="M9873 325 c0 -44 2 -61 4 -37 2 23 2 59 0 80 -2 20 -4 1 -4 -43z"/>
<path d="M12810 390 c14 -4 34 -8 45 -8 16 0 15 2 -5 8 -14 4 -34 8 -45 8 -16
0 -15 -2 5 -8z"/>
<path d="M12933 373 c9 -2 23 -2 30 0 6 3 -1 5 -18 5 -16 0 -22 -2 -12 -5z"/>
<path d="M13465 370 l-40 -7 35 -1 c19 0 44 3 55 8 24 10 7 10 -50 0z"/>
<path d="M13008 363 c17 -2 47 -2 65 0 17 2 3 4 -33 4 -36 0 -50 -2 -32 -4z"/>
<path d="M22350 340 c6 -11 13 -20 16 -20 2 0 0 9 -6 20 -6 11 -13 20 -16 20
-2 0 0 -9 6 -20z"/>
<path d="M1940 255 c47 -50 107 -115 133 -145 26 -30 19 -19 -17 25 -35 44
-95 109 -133 145 -60 58 -58 55 17 -25z"/>
<path d="M11370 285 c-24 -25 -42 -45 -39 -45 3 0 25 20 49 45 24 25 42 45 39
45 -3 0 -25 -20 -49 -45z"/>
<path d="M22370 304 c0 -6 7 -19 16 -30 14 -18 14 -18 3 6 -14 31 -19 36 -19
24z"/>
<path d="M22430 195 c39 -72 119 -195 127 -195 3 0 -2 10 -11 22 -9 13 -41 66
-73 118 -66 110 -91 142 -43 55z"/>
<path d="M9864 120 c0 -69 1 -97 3 -63 2 35 2 91 0 125 -2 35 -3 7 -3 -62z"/>
<path d="M15870 183 l-55 -58 58 55 c53 50 62 60 54 60 -1 0 -27 -26 -57 -57z"/>
<path d="M11254 178 l-29 -33 33 29 c30 28 37 36 29 36 -2 0 -16 -15 -33 -32z"/>
<path d="M415 130 c-14 -27 -23 -50 -20 -50 2 0 16 23 30 50 14 28 23 50 20
50 -2 0 -16 -22 -30 -50z"/>
<path d="M11164 97 l-49 -52 50 45 c27 25 52 46 54 48 2 1 2 4 0 7 -3 2 -27
-19 -55 -48z"/>
<path d="M19103 75 c0 -44 2 -61 4 -37 2 23 2 59 0 80 -2 20 -4 1 -4 -43z"/>
<path d="M15774 98 l-19 -23 23 19 c21 18 27 26 19 26 -2 0 -12 -10 -23 -22z"/>
<path d="M370 49 c-7 -11 -10 -23 -7 -25 2 -2 9 7 15 21 14 30 7 33 -8 4z"/>
<path d="M15699 43 c-13 -16 -12 -17 4 -4 9 7 17 15 17 17 0 8 -8 3 -21 -13z"/>
<path d="M2140 25 c13 -14 26 -25 28 -25 3 0 -5 11 -18 25 -13 14 -26 25 -28
25 -3 0 5 -11 18 -25z"/>
<path d="M11079 23 l-24 -28 28 24 c25 23 32 31 24 31 -2 0 -14 -12 -28 -27z"/>
<path d="M15660 20 c-9 -6 -10 -10 -3 -10 6 0 15 5 18 10 8 12 4 12 -15 0z"/>
</g>
</svg>
